<svg width="43" height="43" viewBox="0 0 43 43" fill="none" xmlns="http://www.w3.org/2000/svg">
<g clip-path="url(#clip0_22_40)">
<path d="M18.7386 38.6664L14.6401 37.4772C14.2101 37.3562 13.9683 36.9061 14.0892 36.4761L23.2603 4.88452C23.3812 4.45452 23.8314 4.21265 24.2614 4.33359L28.3598 5.52281C28.7898 5.64374 29.0317 6.0939 28.9108 6.5239L19.7397 38.1155C19.612 38.5455 19.1686 38.7941 18.7386 38.6664ZM11.0792 31.128L14.0018 28.0105C14.3109 27.6812 14.2908 27.1572 13.9481 26.8548L7.86091 21.5L13.9481 16.1451C14.2908 15.8428 14.3176 15.3187 14.0018 14.9895L11.0792 11.872C10.7768 11.5495 10.2662 11.5294 9.937 11.8384L0.255283 20.9087C-0.0873731 21.2245 -0.0873731 21.7687 0.255283 22.0845L9.937 31.1616C10.2662 31.4706 10.7768 31.4572 11.0792 31.128ZM33.0629 31.1683L42.7447 22.0912C43.0873 21.7755 43.0873 21.2312 42.7447 20.9155L33.0629 11.8317C32.7404 11.5294 32.2298 11.5428 31.9208 11.8653L28.9981 14.9828C28.689 15.312 28.7092 15.8361 29.0518 16.1384L35.139 21.5L29.0518 26.8548C28.7092 27.1572 28.6823 27.6812 28.9981 28.0105L31.9208 31.128C32.2231 31.4572 32.7337 31.4706 33.0629 31.1683Z" fill="#FFDBFD"/>
</g>
<defs>
<clipPath id="clip0_22_40">
<rect width="43" height="43" fill="white"/>
</clipPath>
</defs>
</svg>
