<svg width="43" height="43" viewBox="0 0 43 43" fill="none" xmlns="http://www.w3.org/2000/svg">
<path d="M24.1875 11.4219V0H7.39062C6.27363 0 5.375 0.898633 5.375 2.01562V40.9844C5.375 42.1014 6.27363 43 7.39062 43H35.6094C36.7264 43 37.625 42.1014 37.625 40.9844V13.4375H26.2031C25.0945 13.4375 24.1875 12.5305 24.1875 11.4219ZM29.5625 31.2422C29.5625 31.7965 29.109 32.25 28.5547 32.25H14.4453C13.891 32.25 13.4375 31.7965 13.4375 31.2422V30.5703C13.4375 30.016 13.891 29.5625 14.4453 29.5625H28.5547C29.109 29.5625 29.5625 30.016 29.5625 30.5703V31.2422ZM29.5625 25.8672C29.5625 26.4215 29.109 26.875 28.5547 26.875H14.4453C13.891 26.875 13.4375 26.4215 13.4375 25.8672V25.1953C13.4375 24.641 13.891 24.1875 14.4453 24.1875H28.5547C29.109 24.1875 29.5625 24.641 29.5625 25.1953V25.8672ZM29.5625 19.8203V20.4922C29.5625 21.0465 29.109 21.5 28.5547 21.5H14.4453C13.891 21.5 13.4375 21.0465 13.4375 20.4922V19.8203C13.4375 19.266 13.891 18.8125 14.4453 18.8125H28.5547C29.109 18.8125 29.5625 19.266 29.5625 19.8203ZM37.625 10.2377V10.75H26.875V0H27.3873C27.9248 0 28.4371 0.209961 28.815 0.587891L37.0371 8.81836C37.415 9.19629 37.625 9.70859 37.625 10.2377Z" fill="#FFDBFD"/>
</svg>
