<svg width="43" height="43" viewBox="0 0 43 43" fill="none" xmlns="http://www.w3.org/2000/svg">
<g clip-path="url(#clip0_22_49)">
<path d="M0 21.5V30.1C0 31.2892 0.960781 32.25 2.15 32.25H4.3V19.35H2.15C0.960781 19.35 0 20.3108 0 21.5ZM31.175 10.75H23.65V6.44999C23.65 5.26077 22.6892 4.29999 21.5 4.29999C20.3108 4.29999 19.35 5.26077 19.35 6.44999V10.75H11.825C8.85531 10.75 6.45 13.1553 6.45 16.125V34.4C6.45 36.7717 8.37828 38.7 10.75 38.7H32.25C34.6217 38.7 36.55 36.7717 36.55 34.4V16.125C36.55 13.1553 34.1447 10.75 31.175 10.75ZM17.2 32.25H12.9V30.1H17.2V32.25ZM15.05 24.1875C13.5652 24.1875 12.3625 22.9848 12.3625 21.5C12.3625 20.0151 13.5652 18.8125 15.05 18.8125C16.5348 18.8125 17.7375 20.0151 17.7375 21.5C17.7375 22.9848 16.5348 24.1875 15.05 24.1875ZM23.65 32.25H19.35V30.1H23.65V32.25ZM30.1 32.25H25.8V30.1H30.1V32.25ZM27.95 24.1875C26.4652 24.1875 25.2625 22.9848 25.2625 21.5C25.2625 20.0151 26.4652 18.8125 27.95 18.8125C29.4348 18.8125 30.6375 20.0151 30.6375 21.5C30.6375 22.9848 29.4348 24.1875 27.95 24.1875ZM40.85 19.35H38.7V32.25H40.85C42.0392 32.25 43 31.2892 43 30.1V21.5C43 20.3108 42.0392 19.35 40.85 19.35Z" fill="#FFDBFD"/>
</g>
<defs>
<clipPath id="clip0_22_49">
<rect width="43" height="43" fill="white"/>
</clipPath>
</defs>
</svg>
